<svg width="75" height="71" viewBox="0 0 75 71" fill="none" xmlns="http://www.w3.org/2000/svg">
<g clip-path="url(#clip0_46_397)">
<path d="M38.6606 45.0918C43.8383 45.0918 48.0356 41.1814 48.0356 36.3577C48.0356 31.5339 43.8383 27.6235 38.6606 27.6235C33.4829 27.6235 29.2856 31.5339 29.2856 36.3577C29.2856 41.1814 33.4829 45.0918 38.6606 45.0918Z" stroke="#A39F9B" stroke-width="5" stroke-linecap="round" stroke-linejoin="round"/>
<path d="M61.7857 45.0918C61.3697 45.9699 61.2456 46.944 61.4294 47.8884C61.6133 48.8329 62.0965 49.7044 62.817 50.3905L63.0045 50.5652C63.5856 51.106 64.0466 51.7481 64.3611 52.455C64.6756 53.1619 64.8375 53.9196 64.8375 54.6848C64.8375 55.45 64.6756 56.2077 64.3611 56.9146C64.0466 57.6214 63.5856 58.2636 63.0045 58.8044C62.424 59.3458 61.7347 59.7752 60.976 60.0683C60.2172 60.3613 59.4039 60.5121 58.5826 60.5121C57.7612 60.5121 56.9479 60.3613 56.1892 60.0683C55.4305 59.7752 54.7412 59.3458 54.1607 58.8044L53.9732 58.6297C53.2367 57.9585 52.3013 57.5083 51.2875 57.337C50.2738 57.1658 49.2283 57.2814 48.2857 57.6689C47.3614 58.038 46.5732 58.6508 46.0179 59.4319C45.4627 60.213 45.1647 61.1283 45.1607 62.0651V62.5601C45.1607 64.1043 44.5022 65.5854 43.3301 66.6774C42.158 67.7693 40.5683 68.3828 38.9107 68.3828C37.2531 68.3828 35.6634 67.7693 34.4913 66.6774C33.3192 65.5854 32.6607 64.1043 32.6607 62.5601V62.298C32.6365 61.3344 32.3017 60.3998 31.6998 59.6158C31.0979 58.8318 30.2568 58.2346 29.2857 57.9019C28.3432 57.5143 27.2976 57.3987 26.2839 57.5699C25.2701 57.7412 24.3347 58.1914 23.5982 58.8626L23.4107 59.0373C22.8302 59.5787 22.1409 60.0082 21.3822 60.3012C20.6235 60.5942 19.8102 60.745 18.9888 60.745C18.1675 60.745 17.3542 60.5942 16.5955 60.3012C15.8367 60.0082 15.1474 59.5787 14.567 59.0373C13.9859 58.4965 13.5249 57.8543 13.2103 57.1475C12.8958 56.4406 12.7339 55.6829 12.7339 54.9177C12.7339 54.1525 12.8958 53.3948 13.2103 52.6879C13.5249 51.9811 13.9859 51.3389 14.567 50.7981L14.7545 50.6234C15.4749 49.9373 15.9582 49.0658 16.142 48.1213C16.3258 47.1769 16.2017 46.2028 15.7857 45.3247C15.3896 44.4636 14.7318 43.7292 13.8934 43.2119C13.055 42.6947 12.0725 42.4171 11.067 42.4133H10.5357C8.8781 42.4133 7.28839 41.7999 6.11629 40.7079C4.94419 39.6159 4.28571 38.1349 4.28571 36.5906C4.28571 35.0463 4.94419 33.5652 6.11629 32.4733C7.28839 31.3813 8.8781 30.7678 10.5357 30.7678H10.817C11.8513 30.7453 12.8545 30.4334 13.696 29.8726C14.5376 29.3119 15.1786 28.5282 15.5357 27.6235C15.9517 26.7454 16.0758 25.7713 15.892 24.8269C15.7082 23.8825 15.2249 23.011 14.5045 22.3248L14.317 22.1501C13.7359 21.6094 13.2749 20.9672 12.9603 20.2603C12.6458 19.5534 12.4839 18.7957 12.4839 18.0305C12.4839 17.2653 12.6458 16.5077 12.9603 15.8008C13.2749 15.0939 13.7359 14.4517 14.317 13.9109C14.8974 13.3696 15.5867 12.9401 16.3455 12.6471C17.1042 12.354 17.9175 12.2032 18.7388 12.2032C19.5602 12.2032 20.3735 12.354 21.1322 12.6471C21.8909 12.9401 22.5802 13.3696 23.1607 13.9109L23.3482 14.0856C24.0847 14.7568 25.0201 15.2071 26.0339 15.3783C27.0476 15.5495 28.0932 15.4339 29.0357 15.0464H29.2857C30.21 14.6773 30.9983 14.0645 31.5535 13.2834C32.1087 12.5024 32.4067 11.587 32.4107 10.6502V10.1553C32.4107 8.61098 33.0692 7.12994 34.2413 6.03796C35.4134 4.94599 37.0031 4.33252 38.6607 4.33252C40.3183 4.33252 41.908 4.94599 43.0801 6.03796C44.2522 7.12994 44.9107 8.61098 44.9107 10.1553V10.4173C44.9147 11.3541 45.2127 12.2694 45.7679 13.0505C46.3232 13.8316 47.1114 14.4444 48.0357 14.8135C48.9783 15.201 50.0238 15.3166 51.0375 15.1454C52.0513 14.9741 52.9867 14.5239 53.7232 13.8527L53.9107 13.678C54.4912 13.1367 55.1805 12.7072 55.9392 12.4142C56.6979 12.1211 57.5112 11.9703 58.3326 11.9703C59.1539 11.9703 59.9672 12.1211 60.726 12.4142C61.4847 12.7072 62.174 13.1367 62.7545 13.678C63.3356 14.2188 63.7966 14.861 64.1111 15.5679C64.4256 16.2747 64.5875 17.0324 64.5875 17.7976C64.5875 18.5628 64.4256 19.3205 64.1111 20.0274C63.7966 20.7343 63.3356 21.3765 62.7545 21.9172L62.567 22.0919C61.8465 22.7781 61.3633 23.6496 61.1794 24.594C60.9956 25.5384 61.1197 26.5125 61.5357 27.3906V27.6235C61.9318 28.4846 62.5896 29.219 63.428 29.7363C64.2664 30.2536 65.2489 30.5312 66.2545 30.5349H66.7857C68.4433 30.5349 70.033 31.1484 71.2051 32.2404C72.3772 33.3323 73.0357 34.8134 73.0357 36.3577C73.0357 37.902 72.3772 39.383 71.2051 40.475C70.033 41.567 68.4433 42.1804 66.7857 42.1804H66.5045C65.4989 42.1842 64.5164 42.4618 63.678 42.979C62.8396 43.4963 62.1818 44.2307 61.7857 45.0918Z" stroke="#A39F9B" stroke-width="5" stroke-linecap="round" stroke-linejoin="round"/>
</g>
<defs>
<clipPath id="clip0_46_397">
<rect width="75" height="69.873" fill="white" transform="translate(0 0.339844)"/>
</clipPath>
</defs>
</svg>
