<svg width="75" height="71" viewBox="0 0 75 71" fill="none" xmlns="http://www.w3.org/2000/svg">
<g clip-path="url(#clip0_46_387)">
<path d="M62 63.4648V57.2148C62 53.8996 60.683 50.7202 58.3388 48.376C55.9946 46.0318 52.8152 44.7148 49.5 44.7148H24.5C21.1848 44.7148 18.0054 46.0318 15.6612 48.376C13.317 50.7202 12 53.8996 12 57.2148V63.4648" stroke="#A39F9B" stroke-width="5" stroke-linecap="round" stroke-linejoin="round"/>
<path d="M37 35.3398C43.9036 35.3398 49.5 29.7434 49.5 22.8398C49.5 15.9363 43.9036 10.3398 37 10.3398C30.0964 10.3398 24.5 15.9363 24.5 22.8398C24.5 29.7434 30.0964 35.3398 37 35.3398Z" stroke="#A39F9B" stroke-width="5" stroke-linecap="round" stroke-linejoin="round"/>
</g>
<defs>
<clipPath id="clip0_46_387">
<rect width="75" height="69.873" fill="white" transform="translate(0 0.339844)"/>
</clipPath>
</defs>
</svg>
